<svg xmlns="http://www.w3.org/2000/svg" viewBox="0 0 48 48" width="48" height="48">
  <path fill="#0277bd" d="M24.5,7c-4.5,0-8.5,1.5-11.5,4c-3,2.5-5,6-5,10c0,4,2,7.5,5,10c3,2.5,7,4,11.5,4s8.5-1.5,11.5-4c3-2.5,5-6,5-10c0-4-2-7.5-5-10C33,8.5,29,7,24.5,7z"/>
  <path fill="#0277bd" d="M24.5,9c3.9,0,7.4,1.3,10,3.5c2.6,2.2,4,5.2,4,8.5s-1.4,6.3-4,8.5c-2.6,2.2-6.1,3.5-10,3.5s-7.4-1.3-10-3.5c-2.6-2.2-4-5.2-4-8.5s1.4-6.3,4-8.5C17.1,10.3,20.6,9,24.5,9z"/>
  <ellipse cx="24.5" cy="21" fill="#fff" rx="12" ry="8"/>
  <path fill="#0277bd" d="M24.5,15c-5.5,0-10,2.7-10,6s4.5,6,10,6s10-2.7,10-6S30,15,24.5,15z"/>
  <path fill="#42a5f5" d="M24.5,17c4.4,0,8,1.8,8,4s-3.6,4-8,4s-8-1.8-8-4S20.1,17,24.5,17z"/>
</svg>